<?xml version="1.0" encoding="UTF-8"?>
<svg xmlns="http://www.w3.org/2000/svg" xmlns:xlink="http://www.w3.org/1999/xlink" width="27px" height="31px" viewBox="0 0 27 30" version="1.1">
<g id="surface1">
<path style=" stroke:none;fill-rule:nonzero;fill:rgb(0%,0%,0%);fill-opacity:1;" d="M 15.429688 4.6875 C 15.429688 3.648438 14.566406 2.8125 13.5 2.8125 C 12.433594 2.8125 11.570312 3.648438 11.570312 4.6875 L 11.570312 13.125 L 2.894531 13.125 C 1.824219 13.125 0.964844 13.960938 0.964844 15 C 0.964844 16.039062 1.824219 16.875 2.894531 16.875 L 11.570312 16.875 L 11.570312 25.3125 C 11.570312 26.351562 12.433594 27.1875 13.5 27.1875 C 14.566406 27.1875 15.429688 26.351562 15.429688 25.3125 L 15.429688 16.875 L 24.105469 16.875 C 25.175781 16.875 26.035156 16.039062 26.035156 15 C 26.035156 13.960938 25.175781 13.125 24.105469 13.125 L 15.429688 13.125 Z M 15.429688 4.6875 "/>
</g>
</svg>
